<svg width="60" height="60" viewBox="0 0 60 60" fill="none" xmlns="http://www.w3.org/2000/svg">
<path d="M24.7186 30.6844C24.2832 30.6844 23.9246 30.8019 23.8991 31.166C23.8607 31.6594 23.7582 32.4229 22.593 32.4229C21.7095 32.4229 21.2229 31.9883 21.2229 31.072V27.7948C21.2228 26.8786 21.7093 26.444 22.5673 26.444C23.7837 26.444 23.8733 27.2427 23.899 27.6068C23.9118 27.9592 24.2576 28.0885 24.7314 28.0885C25.2947 28.0885 25.5636 27.9475 25.5636 27.3367C25.5636 25.9742 24.296 25.1049 22.5162 25.1049C20.9027 25.1049 19.5582 25.8332 19.5582 27.7948V31.072C19.5582 33.0338 20.89 33.762 22.5033 33.762C24.296 33.762 25.5636 32.8575 25.5636 31.4361C25.5636 30.8371 25.2948 30.6844 24.7186 30.6844Z" fill="white"/>
<path d="M29.8914 25.1049H27.3176C26.9334 25.1049 26.6902 25.328 26.6902 25.5748V33.21C26.6902 33.5271 27.1 33.6917 27.5224 33.6917C27.9321 33.6917 28.3547 33.5271 28.3547 33.21V30.4848H29.7888C31.4791 30.4848 32.798 29.7448 32.798 27.8183V27.7478C32.798 25.8213 31.5175 25.1049 29.8914 25.1049ZM31.1333 27.9359C31.1333 28.8522 30.6211 29.2868 29.7888 29.2868H28.3547V26.444H29.7888C30.6212 26.444 31.1333 26.8786 31.1333 27.7949V27.9359Z" fill="white"/>
<path d="M39.0976 25.1049C38.675 25.1049 38.2654 25.2458 38.2654 25.5748V31.0722C38.2654 31.9885 37.7404 32.423 36.8569 32.423C35.9733 32.423 35.4483 31.9885 35.4483 31.0722V25.5748C35.4483 25.2458 35.0257 25.1049 34.616 25.1049C34.1934 25.1049 33.7836 25.2458 33.7836 25.5748V31.0722C33.7836 33.0339 35.1281 33.7621 36.8568 33.7621C38.5726 33.7621 39.9299 33.0338 39.9299 31.0722V25.5748C39.9299 25.2458 39.5073 25.1049 39.0976 25.1049Z" fill="white"/>
<path d="M7.85156 8.39999C8.37256 8.39999 8.79492 7.97764 8.79492 7.45663C8.79492 6.93563 8.37256 6.51328 7.85156 6.51328C7.33056 6.51328 6.9082 6.93563 6.9082 7.45663C6.9082 7.97764 7.33056 8.39999 7.85156 8.39999Z" fill="white"/>
<path d="M11.8641 8.39999C12.3851 8.39999 12.8074 7.97764 12.8074 7.45663C12.8074 6.93563 12.3851 6.51328 11.8641 6.51328C11.3431 6.51328 10.9207 6.93563 10.9207 7.45663C10.9207 7.97764 11.3431 8.39999 11.8641 8.39999Z" fill="white"/>
<path d="M15.8777 8.39999C16.3987 8.39999 16.8211 7.97764 16.8211 7.45663C16.8211 6.93563 16.3987 6.51328 15.8777 6.51328C15.3567 6.51328 14.9344 6.93563 14.9344 7.45663C14.9344 7.97764 15.3567 8.39999 15.8777 8.39999Z" fill="white"/>
<path d="M19.8902 8.39999C20.4112 8.39999 20.8336 7.97764 20.8336 7.45663C20.8336 6.93563 20.4112 6.51328 19.8902 6.51328C19.3692 6.51328 18.9469 6.93563 18.9469 7.45663C18.9469 7.97764 19.3692 8.39999 19.8902 8.39999Z" fill="white"/>
<path d="M23.9027 8.39999C24.4237 8.39999 24.8461 7.97764 24.8461 7.45663C24.8461 6.93563 24.4237 6.51328 23.9027 6.51328C23.3817 6.51328 22.9594 6.93563 22.9594 7.45663C22.9594 7.97764 23.3817 8.39999 23.9027 8.39999Z" fill="white"/>
<path d="M27.9152 8.39999C28.4362 8.39999 28.8586 7.97764 28.8586 7.45663C28.8586 6.93563 28.4362 6.51328 27.9152 6.51328C27.3942 6.51328 26.9719 6.93563 26.9719 7.45663C26.9719 7.97764 27.3942 8.39999 27.9152 8.39999Z" fill="white"/>
<path d="M31.9277 8.39999C32.4487 8.39999 32.8711 7.97764 32.8711 7.45663C32.8711 6.93563 32.4487 6.51328 31.9277 6.51328C31.4067 6.51328 30.9844 6.93563 30.9844 7.45663C30.9844 7.97764 31.4067 8.39999 31.9277 8.39999Z" fill="white"/>
<path d="M35.9402 8.39999C36.4612 8.39999 36.8836 7.97764 36.8836 7.45663C36.8836 6.93563 36.4612 6.51328 35.9402 6.51328C35.4192 6.51328 34.9969 6.93563 34.9969 7.45663C34.9969 7.97764 35.4192 8.39999 35.9402 8.39999Z" fill="white"/>
<path d="M39.9539 8.39999C40.4749 8.39999 40.8973 7.97764 40.8973 7.45663C40.8973 6.93563 40.4749 6.51328 39.9539 6.51328C39.4329 6.51328 39.0105 6.93563 39.0105 7.45663C39.0105 7.97764 39.4329 8.39999 39.9539 8.39999Z" fill="white"/>
<path d="M43.9664 8.39999C44.4874 8.39999 44.9098 7.97764 44.9098 7.45663C44.9098 6.93563 44.4874 6.51328 43.9664 6.51328C43.4454 6.51328 43.023 6.93563 43.023 7.45663C43.023 7.97764 43.4454 8.39999 43.9664 8.39999Z" fill="white"/>
<path d="M47.9789 8.39999C48.4999 8.39999 48.9223 7.97764 48.9223 7.45663C48.9223 6.93563 48.4999 6.51328 47.9789 6.51328C47.4579 6.51328 47.0356 6.93563 47.0356 7.45663C47.0356 7.97764 47.4579 8.39999 47.9789 8.39999Z" fill="white"/>
<path d="M51.9914 8.39999C52.5124 8.39999 52.9348 7.97764 52.9348 7.45663C52.9348 6.93563 52.5124 6.51328 51.9914 6.51328C51.4704 6.51328 51.048 6.93563 51.048 7.45663C51.048 7.97764 51.4704 8.39999 51.9914 8.39999Z" fill="white"/>
<path d="M7.85156 12.4641C8.37256 12.4641 8.79492 12.0417 8.79492 11.5207C8.79492 10.9997 8.37256 10.5774 7.85156 10.5774C7.33056 10.5774 6.9082 10.9997 6.9082 11.5207C6.9082 12.0417 7.33056 12.4641 7.85156 12.4641Z" fill="white"/>
<path d="M11.8641 12.4641C12.3851 12.4641 12.8074 12.0417 12.8074 11.5207C12.8074 10.9997 12.3851 10.5774 11.8641 10.5774C11.3431 10.5774 10.9207 10.9997 10.9207 11.5207C10.9207 12.0417 11.3431 12.4641 11.8641 12.4641Z" fill="white"/>
<path d="M15.8777 12.4641C16.3987 12.4641 16.8211 12.0417 16.8211 11.5207C16.8211 10.9997 16.3987 10.5774 15.8777 10.5774C15.3567 10.5774 14.9344 10.9997 14.9344 11.5207C14.9344 12.0417 15.3567 12.4641 15.8777 12.4641Z" fill="white"/>
<path d="M19.8902 12.4641C20.4112 12.4641 20.8336 12.0417 20.8336 11.5207C20.8336 10.9997 20.4112 10.5774 19.8902 10.5774C19.3692 10.5774 18.9469 10.9997 18.9469 11.5207C18.9469 12.0417 19.3692 12.4641 19.8902 12.4641Z" fill="white"/>
<path d="M23.9027 12.4641C24.4237 12.4641 24.8461 12.0417 24.8461 11.5207C24.8461 10.9997 24.4237 10.5774 23.9027 10.5774C23.3817 10.5774 22.9594 10.9997 22.9594 11.5207C22.9594 12.0417 23.3817 12.4641 23.9027 12.4641Z" fill="white"/>
<path d="M27.9152 12.4641C28.4362 12.4641 28.8586 12.0417 28.8586 11.5207C28.8586 10.9997 28.4362 10.5774 27.9152 10.5774C27.3942 10.5774 26.9719 10.9997 26.9719 11.5207C26.9719 12.0417 27.3942 12.4641 27.9152 12.4641Z" fill="white"/>
<path d="M31.9277 12.4641C32.4487 12.4641 32.8711 12.0417 32.8711 11.5207C32.8711 10.9997 32.4487 10.5774 31.9277 10.5774C31.4067 10.5774 30.9844 10.9997 30.9844 11.5207C30.9844 12.0417 31.4067 12.4641 31.9277 12.4641Z" fill="white"/>
<path d="M35.9402 12.4641C36.4612 12.4641 36.8836 12.0417 36.8836 11.5207C36.8836 10.9997 36.4612 10.5774 35.9402 10.5774C35.4192 10.5774 34.9969 10.9997 34.9969 11.5207C34.9969 12.0417 35.4192 12.4641 35.9402 12.4641Z" fill="white"/>
<path d="M39.9539 12.4641C40.4749 12.4641 40.8973 12.0417 40.8973 11.5207C40.8973 10.9997 40.4749 10.5774 39.9539 10.5774C39.4329 10.5774 39.0105 10.9997 39.0105 11.5207C39.0105 12.0417 39.4329 12.4641 39.9539 12.4641Z" fill="white"/>
<path d="M43.9664 12.4641C44.4874 12.4641 44.9098 12.0417 44.9098 11.5207C44.9098 10.9997 44.4874 10.5774 43.9664 10.5774C43.4454 10.5774 43.023 10.9997 43.023 11.5207C43.023 12.0417 43.4454 12.4641 43.9664 12.4641Z" fill="white"/>
<path d="M47.9789 12.4641C48.4999 12.4641 48.9223 12.0417 48.9223 11.5207C48.9223 10.9997 48.4999 10.5774 47.9789 10.5774C47.4579 10.5774 47.0356 10.9997 47.0356 11.5207C47.0356 12.0417 47.4579 12.4641 47.9789 12.4641Z" fill="white"/>
<path d="M51.9914 12.4641C52.5124 12.4641 52.9348 12.0417 52.9348 11.5207C52.9348 10.9997 52.5124 10.5774 51.9914 10.5774C51.4704 10.5774 51.048 10.9997 51.048 11.5207C51.048 12.0417 51.4704 12.4641 51.9914 12.4641Z" fill="white"/>
<path d="M7.85156 16.5645C8.37256 16.5645 8.79492 16.1421 8.79492 15.6211C8.79492 15.1001 8.37256 14.6777 7.85156 14.6777C7.33056 14.6777 6.9082 15.1001 6.9082 15.6211C6.9082 16.1421 7.33056 16.5645 7.85156 16.5645Z" fill="white"/>
<path d="M11.8641 16.5645C12.3851 16.5645 12.8074 16.1421 12.8074 15.6211C12.8074 15.1001 12.3851 14.6777 11.8641 14.6777C11.3431 14.6777 10.9207 15.1001 10.9207 15.6211C10.9207 16.1421 11.3431 16.5645 11.8641 16.5645Z" fill="white"/>
<path d="M47.9789 16.5645C48.4999 16.5645 48.9223 16.1421 48.9223 15.6211C48.9223 15.1001 48.4999 14.6777 47.9789 14.6777C47.4579 14.6777 47.0356 15.1001 47.0356 15.6211C47.0356 16.1421 47.4579 16.5645 47.9789 16.5645Z" fill="white"/>
<path d="M51.9914 16.5645C52.5124 16.5645 52.9348 16.1421 52.9348 15.6211C52.9348 15.1001 52.5124 14.6777 51.9914 14.6777C51.4704 14.6777 51.048 15.1001 51.048 15.6211C51.048 16.1421 51.4704 16.5645 51.9914 16.5645Z" fill="white"/>
<path d="M7.85156 20.6285C8.37256 20.6285 8.79492 20.2062 8.79492 19.6852C8.79492 19.1641 8.37256 18.7418 7.85156 18.7418C7.33056 18.7418 6.9082 19.1641 6.9082 19.6852C6.9082 20.2062 7.33056 20.6285 7.85156 20.6285Z" fill="white"/>
<path d="M11.8641 20.6285C12.3851 20.6285 12.8074 20.2062 12.8074 19.6852C12.8074 19.1641 12.3851 18.7418 11.8641 18.7418C11.3431 18.7418 10.9207 19.1641 10.9207 19.6852C10.9207 20.2062 11.3431 20.6285 11.8641 20.6285Z" fill="white"/>
<path d="M47.9789 20.6285C48.4999 20.6285 48.9223 20.2062 48.9223 19.6852C48.9223 19.1641 48.4999 18.7418 47.9789 18.7418C47.4579 18.7418 47.0356 19.1641 47.0356 19.6852C47.0356 20.2062 47.4579 20.6285 47.9789 20.6285Z" fill="white"/>
<path d="M51.9914 20.6285C52.5124 20.6285 52.9348 20.2062 52.9348 19.6852C52.9348 19.1641 52.5124 18.7418 51.9914 18.7418C51.4704 18.7418 51.048 19.1641 51.048 19.6852C51.048 20.2062 51.4704 20.6285 51.9914 20.6285Z" fill="white"/>
<path d="M7.85156 24.7289C8.37256 24.7289 8.79492 24.3066 8.79492 23.7856C8.79492 23.2646 8.37256 22.8422 7.85156 22.8422C7.33056 22.8422 6.9082 23.2646 6.9082 23.7856C6.9082 24.3066 7.33056 24.7289 7.85156 24.7289Z" fill="white"/>
<path d="M11.8641 24.7289C12.3851 24.7289 12.8074 24.3066 12.8074 23.7856C12.8074 23.2646 12.3851 22.8422 11.8641 22.8422C11.3431 22.8422 10.9207 23.2646 10.9207 23.7856C10.9207 24.3066 11.3431 24.7289 11.8641 24.7289Z" fill="white"/>
<path d="M47.9789 24.7289C48.4999 24.7289 48.9223 24.3066 48.9223 23.7856C48.9223 23.2646 48.4999 22.8422 47.9789 22.8422C47.4579 22.8422 47.0356 23.2646 47.0356 23.7856C47.0356 24.3066 47.4579 24.7289 47.9789 24.7289Z" fill="white"/>
<path d="M51.9914 24.7289C52.5124 24.7289 52.9348 24.3066 52.9348 23.7856C52.9348 23.2646 52.5124 22.8422 51.9914 22.8422C51.4704 22.8422 51.048 23.2646 51.048 23.7856C51.048 24.3066 51.4704 24.7289 51.9914 24.7289Z" fill="white"/>
<path d="M7.85156 28.793C8.37256 28.793 8.79492 28.3706 8.79492 27.8496C8.79492 27.3286 8.37256 26.9062 7.85156 26.9062C7.33056 26.9062 6.9082 27.3286 6.9082 27.8496C6.9082 28.3706 7.33056 28.793 7.85156 28.793Z" fill="white"/>
<path d="M11.8641 28.793C12.3851 28.793 12.8074 28.3706 12.8074 27.8496C12.8074 27.3286 12.3851 26.9062 11.8641 26.9062C11.3431 26.9062 10.9207 27.3286 10.9207 27.8496C10.9207 28.3706 11.3431 28.793 11.8641 28.793Z" fill="white"/>
<path d="M47.9789 28.793C48.4999 28.793 48.9223 28.3706 48.9223 27.8496C48.9223 27.3286 48.4999 26.9062 47.9789 26.9062C47.4579 26.9062 47.0356 27.3286 47.0356 27.8496C47.0356 28.3706 47.4579 28.793 47.9789 28.793Z" fill="white"/>
<path d="M51.9914 28.793C52.5124 28.793 52.9348 28.3706 52.9348 27.8496C52.9348 27.3286 52.5124 26.9062 51.9914 26.9062C51.4704 26.9062 51.048 27.3286 51.048 27.8496C51.048 28.3706 51.4704 28.793 51.9914 28.793Z" fill="white"/>
<path d="M7.85156 32.8934C8.37256 32.8934 8.79492 32.471 8.79492 31.95C8.79492 31.429 8.37256 31.0067 7.85156 31.0067C7.33056 31.0067 6.9082 31.429 6.9082 31.95C6.9082 32.471 7.33056 32.8934 7.85156 32.8934Z" fill="white"/>
<path d="M11.8641 32.8934C12.3851 32.8934 12.8074 32.471 12.8074 31.95C12.8074 31.429 12.3851 31.0067 11.8641 31.0067C11.3431 31.0067 10.9207 31.429 10.9207 31.95C10.9207 32.471 11.3431 32.8934 11.8641 32.8934Z" fill="white"/>
<path d="M47.9789 32.8934C48.4999 32.8934 48.9223 32.471 48.9223 31.95C48.9223 31.429 48.4999 31.0067 47.9789 31.0067C47.4579 31.0067 47.0356 31.429 47.0356 31.95C47.0356 32.471 47.4579 32.8934 47.9789 32.8934Z" fill="white"/>
<path d="M51.9914 32.8934C52.5124 32.8934 52.9348 32.471 52.9348 31.95C52.9348 31.429 52.5124 31.0067 51.9914 31.0067C51.4704 31.0067 51.048 31.429 51.048 31.95C51.048 32.471 51.4704 32.8934 51.9914 32.8934Z" fill="white"/>
<path d="M7.85156 36.9574C8.37256 36.9574 8.79492 36.535 8.79492 36.014C8.79492 35.493 8.37256 35.0707 7.85156 35.0707C7.33056 35.0707 6.9082 35.493 6.9082 36.014C6.9082 36.535 7.33056 36.9574 7.85156 36.9574Z" fill="white"/>
<path d="M11.8641 36.9574C12.3851 36.9574 12.8074 36.535 12.8074 36.014C12.8074 35.493 12.3851 35.0707 11.8641 35.0707C11.3431 35.0707 10.9207 35.493 10.9207 36.014C10.9207 36.535 11.3431 36.9574 11.8641 36.9574Z" fill="white"/>
<path d="M47.9789 36.9574C48.4999 36.9574 48.9223 36.535 48.9223 36.014C48.9223 35.493 48.4999 35.0707 47.9789 35.0707C47.4579 35.0707 47.0356 35.493 47.0356 36.014C47.0356 36.535 47.4579 36.9574 47.9789 36.9574Z" fill="white"/>
<path d="M51.9914 36.9574C52.5124 36.9574 52.9348 36.535 52.9348 36.014C52.9348 35.493 52.5124 35.0707 51.9914 35.0707C51.4704 35.0707 51.048 35.493 51.048 36.014C51.048 36.535 51.4704 36.9574 51.9914 36.9574Z" fill="white"/>
<path d="M7.85156 41.0579C8.37256 41.0579 8.79492 40.6355 8.79492 40.1145C8.79492 39.5935 8.37256 39.1711 7.85156 39.1711C7.33056 39.1711 6.9082 39.5935 6.9082 40.1145C6.9082 40.6355 7.33056 41.0579 7.85156 41.0579Z" fill="white"/>
<path d="M11.8641 41.0579C12.3851 41.0579 12.8074 40.6355 12.8074 40.1145C12.8074 39.5935 12.3851 39.1711 11.8641 39.1711C11.3431 39.1711 10.9207 39.5935 10.9207 40.1145C10.9207 40.6355 11.3431 41.0579 11.8641 41.0579Z" fill="white"/>
<path d="M47.9789 41.0579C48.4999 41.0579 48.9223 40.6355 48.9223 40.1145C48.9223 39.5935 48.4999 39.1711 47.9789 39.1711C47.4579 39.1711 47.0356 39.5935 47.0356 40.1145C47.0356 40.6355 47.4579 41.0579 47.9789 41.0579Z" fill="white"/>
<path d="M51.9914 41.0579C52.5124 41.0579 52.9348 40.6355 52.9348 40.1145C52.9348 39.5935 52.5124 39.1711 51.9914 39.1711C51.4704 39.1711 51.048 39.5935 51.048 40.1145C51.048 40.6355 51.4704 41.0579 51.9914 41.0579Z" fill="white"/>
<path d="M7.85156 45.1207C8.37256 45.1207 8.79492 44.6984 8.79492 44.1774C8.79492 43.6564 8.37256 43.234 7.85156 43.234C7.33056 43.234 6.9082 43.6564 6.9082 44.1774C6.9082 44.6984 7.33056 45.1207 7.85156 45.1207Z" fill="white"/>
<path d="M11.8641 45.1207C12.3851 45.1207 12.8074 44.6984 12.8074 44.1774C12.8074 43.6564 12.3851 43.234 11.8641 43.234C11.3431 43.234 10.9207 43.6564 10.9207 44.1774C10.9207 44.6984 11.3431 45.1207 11.8641 45.1207Z" fill="white"/>
<path d="M47.9789 45.1207C48.4999 45.1207 48.9223 44.6984 48.9223 44.1774C48.9223 43.6564 48.4999 43.234 47.9789 43.234C47.4579 43.234 47.0356 43.6564 47.0356 44.1774C47.0356 44.6984 47.4579 45.1207 47.9789 45.1207Z" fill="white"/>
<path d="M51.9914 45.1207C52.5124 45.1207 52.9348 44.6984 52.9348 44.1774C52.9348 43.6564 52.5124 43.234 51.9914 43.234C51.4704 43.234 51.048 43.6564 51.048 44.1774C51.048 44.6984 51.4704 45.1207 51.9914 45.1207Z" fill="white"/>
<path d="M7.85156 49.2223C8.37256 49.2223 8.79492 48.7999 8.79492 48.2789C8.79492 47.7579 8.37256 47.3356 7.85156 47.3356C7.33056 47.3356 6.9082 47.7579 6.9082 48.2789C6.9082 48.7999 7.33056 49.2223 7.85156 49.2223Z" fill="white"/>
<path d="M11.8641 49.2223C12.3851 49.2223 12.8074 48.7999 12.8074 48.2789C12.8074 47.7579 12.3851 47.3356 11.8641 47.3356C11.3431 47.3356 10.9207 47.7579 10.9207 48.2789C10.9207 48.7999 11.3431 49.2223 11.8641 49.2223Z" fill="white"/>
<path d="M15.8777 49.2223C16.3987 49.2223 16.8211 48.7999 16.8211 48.2789C16.8211 47.7579 16.3987 47.3356 15.8777 47.3356C15.3567 47.3356 14.9344 47.7579 14.9344 48.2789C14.9344 48.7999 15.3567 49.2223 15.8777 49.2223Z" fill="white"/>
<path d="M19.8902 49.2223C20.4112 49.2223 20.8336 48.7999 20.8336 48.2789C20.8336 47.7579 20.4112 47.3356 19.8902 47.3356C19.3692 47.3356 18.9469 47.7579 18.9469 48.2789C18.9469 48.7999 19.3692 49.2223 19.8902 49.2223Z" fill="white"/>
<path d="M23.9027 49.2223C24.4237 49.2223 24.8461 48.7999 24.8461 48.2789C24.8461 47.7579 24.4237 47.3356 23.9027 47.3356C23.3817 47.3356 22.9594 47.7579 22.9594 48.2789C22.9594 48.7999 23.3817 49.2223 23.9027 49.2223Z" fill="white"/>
<path d="M27.9152 49.2223C28.4362 49.2223 28.8586 48.7999 28.8586 48.2789C28.8586 47.7579 28.4362 47.3356 27.9152 47.3356C27.3942 47.3356 26.9719 47.7579 26.9719 48.2789C26.9719 48.7999 27.3942 49.2223 27.9152 49.2223Z" fill="white"/>
<path d="M31.9277 49.2223C32.4487 49.2223 32.8711 48.7999 32.8711 48.2789C32.8711 47.7579 32.4487 47.3356 31.9277 47.3356C31.4067 47.3356 30.9844 47.7579 30.9844 48.2789C30.9844 48.7999 31.4067 49.2223 31.9277 49.2223Z" fill="white"/>
<path d="M35.9402 49.2223C36.4612 49.2223 36.8836 48.7999 36.8836 48.2789C36.8836 47.7579 36.4612 47.3356 35.9402 47.3356C35.4192 47.3356 34.9969 47.7579 34.9969 48.2789C34.9969 48.7999 35.4192 49.2223 35.9402 49.2223Z" fill="white"/>
<path d="M39.9539 49.2223C40.4749 49.2223 40.8973 48.7999 40.8973 48.2789C40.8973 47.7579 40.4749 47.3356 39.9539 47.3356C39.4329 47.3356 39.0105 47.7579 39.0105 48.2789C39.0105 48.7999 39.4329 49.2223 39.9539 49.2223Z" fill="white"/>
<path d="M43.9664 49.2223C44.4874 49.2223 44.9098 48.7999 44.9098 48.2789C44.9098 47.7579 44.4874 47.3356 43.9664 47.3356C43.4454 47.3356 43.023 47.7579 43.023 48.2789C43.023 48.7999 43.4454 49.2223 43.9664 49.2223Z" fill="white"/>
<path d="M47.9789 49.2223C48.4999 49.2223 48.9223 48.7999 48.9223 48.2789C48.9223 47.7579 48.4999 47.3356 47.9789 47.3356C47.4579 47.3356 47.0356 47.7579 47.0356 48.2789C47.0356 48.7999 47.4579 49.2223 47.9789 49.2223Z" fill="white"/>
<path d="M51.9914 49.2223C52.5124 49.2223 52.9348 48.7999 52.9348 48.2789C52.9348 47.7579 52.5124 47.3356 51.9914 47.3356C51.4704 47.3356 51.048 47.7579 51.048 48.2789C51.048 48.7999 51.4704 49.2223 51.9914 49.2223Z" fill="white"/>
<path d="M7.85156 53.2852C8.37256 53.2852 8.79492 52.8628 8.79492 52.3418C8.79492 51.8208 8.37256 51.3984 7.85156 51.3984C7.33056 51.3984 6.9082 51.8208 6.9082 52.3418C6.9082 52.8628 7.33056 53.2852 7.85156 53.2852Z" fill="white"/>
<path d="M11.8641 53.2852C12.3851 53.2852 12.8074 52.8628 12.8074 52.3418C12.8074 51.8208 12.3851 51.3984 11.8641 51.3984C11.3431 51.3984 10.9207 51.8208 10.9207 52.3418C10.9207 52.8628 11.3431 53.2852 11.8641 53.2852Z" fill="white"/>
<path d="M15.8777 53.2852C16.3987 53.2852 16.8211 52.8628 16.8211 52.3418C16.8211 51.8208 16.3987 51.3984 15.8777 51.3984C15.3567 51.3984 14.9344 51.8208 14.9344 52.3418C14.9344 52.8628 15.3567 53.2852 15.8777 53.2852Z" fill="white"/>
<path d="M19.8902 53.2852C20.4112 53.2852 20.8336 52.8628 20.8336 52.3418C20.8336 51.8208 20.4112 51.3984 19.8902 51.3984C19.3692 51.3984 18.9469 51.8208 18.9469 52.3418C18.9469 52.8628 19.3692 53.2852 19.8902 53.2852Z" fill="white"/>
<path d="M23.9027 53.2852C24.4237 53.2852 24.8461 52.8628 24.8461 52.3418C24.8461 51.8208 24.4237 51.3984 23.9027 51.3984C23.3817 51.3984 22.9594 51.8208 22.9594 52.3418C22.9594 52.8628 23.3817 53.2852 23.9027 53.2852Z" fill="white"/>
<path d="M27.9152 53.2852C28.4362 53.2852 28.8586 52.8628 28.8586 52.3418C28.8586 51.8208 28.4362 51.3984 27.9152 51.3984C27.3942 51.3984 26.9719 51.8208 26.9719 52.3418C26.9719 52.8628 27.3942 53.2852 27.9152 53.2852Z" fill="white"/>
<path d="M31.9277 53.2852C32.4487 53.2852 32.8711 52.8628 32.8711 52.3418C32.8711 51.8208 32.4487 51.3984 31.9277 51.3984C31.4067 51.3984 30.9844 51.8208 30.9844 52.3418C30.9844 52.8628 31.4067 53.2852 31.9277 53.2852Z" fill="white"/>
<path d="M35.9402 53.2852C36.4612 53.2852 36.8836 52.8628 36.8836 52.3418C36.8836 51.8208 36.4612 51.3984 35.9402 51.3984C35.4192 51.3984 34.9969 51.8208 34.9969 52.3418C34.9969 52.8628 35.4192 53.2852 35.9402 53.2852Z" fill="white"/>
<path d="M39.9539 53.2852C40.4749 53.2852 40.8973 52.8628 40.8973 52.3418C40.8973 51.8208 40.4749 51.3984 39.9539 51.3984C39.4329 51.3984 39.0105 51.8208 39.0105 52.3418C39.0105 52.8628 39.4329 53.2852 39.9539 53.2852Z" fill="white"/>
<path d="M43.9664 53.2852C44.4874 53.2852 44.9098 52.8628 44.9098 52.3418C44.9098 51.8208 44.4874 51.3984 43.9664 51.3984C43.4454 51.3984 43.023 51.8208 43.023 52.3418C43.023 52.8628 43.4454 53.2852 43.9664 53.2852Z" fill="white"/>
<path d="M47.9789 53.2852C48.4999 53.2852 48.9223 52.8628 48.9223 52.3418C48.9223 51.8208 48.4999 51.3984 47.9789 51.3984C47.4579 51.3984 47.0356 51.8208 47.0356 52.3418C47.0356 52.8628 47.4579 53.2852 47.9789 53.2852Z" fill="white"/>
<path d="M51.9914 53.2852C52.5124 53.2852 52.9348 52.8628 52.9348 52.3418C52.9348 51.8208 52.5124 51.3984 51.9914 51.3984C51.4704 51.3984 51.048 51.8208 51.048 52.3418C51.048 52.8628 51.4704 53.2852 51.9914 53.2852Z" fill="white"/>
<path d="M43.6403 14.321H16.3598C15.2357 14.321 14.3211 15.2355 14.3211 16.3597V27.6562C14.3211 28.1416 14.7147 28.5352 15.2 28.5352C15.6854 28.5352 16.0789 28.1416 16.0789 27.6562V16.3597C16.0789 16.2048 16.205 16.0788 16.3598 16.0788H43.6403C43.7952 16.0788 43.9212 16.2048 43.9212 16.3597V27.6562C43.9212 28.1416 44.3147 28.5352 44.8001 28.5352C45.2855 28.5352 45.679 28.1416 45.679 27.6562V16.3597C45.679 15.2355 44.7645 14.321 43.6403 14.321Z" fill="white"/>
<path d="M44.8001 31.4648C44.3147 31.4648 43.9212 31.8584 43.9212 32.3437V37.7094C43.9212 37.9214 43.8348 38.1286 43.6843 38.2778L38.2255 43.6893C38.0747 43.8388 37.8745 43.9212 37.6621 43.9212H16.3597C16.2048 43.9212 16.0788 43.7952 16.0788 43.6403V32.3437C16.0788 31.8584 15.6853 31.4648 15.1999 31.4648C14.7145 31.4648 14.321 31.8584 14.321 32.3437V43.6403C14.321 44.7645 15.2357 45.679 16.3597 45.679H37.6621C38.3412 45.679 38.9808 45.4157 39.463 44.9375L44.9218 39.5261C45.403 39.0491 45.679 38.3869 45.679 37.7094V32.3437C45.679 31.8584 45.2856 31.4648 44.8001 31.4648Z" fill="white"/>
<path d="M59.1211 17.2049C59.6065 17.2049 60 16.8114 60 16.326C60 15.8406 59.6065 15.4471 59.1211 15.4471H56.5923V10.3679H59.1211C59.6065 10.3679 60 9.97441 60 9.48902C60 9.00363 59.6065 8.61012 59.1211 8.61012H56.5923V6.88125C56.5923 4.96594 55.0341 3.4077 53.1187 3.4077H51.3899V0.878906C51.3899 0.393516 50.9964 0 50.511 0C50.0256 0 49.6321 0.393516 49.6321 0.878906V3.4077H44.5529V0.878906C44.5529 0.393516 44.1594 0 43.674 0C43.1886 0 42.7951 0.393516 42.7951 0.878906V3.4077H37.7159V0.878906C37.7159 0.393516 37.3223 0 36.837 0C36.3516 0 35.958 0.393516 35.958 0.878906V3.4077H30.8789V0.878906C30.8789 0.393516 30.4854 0 30 0C29.5146 0 29.1211 0.393516 29.1211 0.878906V3.4077H24.042V0.878906C24.042 0.393516 23.6484 0 23.163 0C22.6777 0 22.2841 0.393516 22.2841 0.878906V3.4077H17.2049V0.878906C17.2049 0.393516 16.8114 0 16.326 0C15.8406 0 15.4471 0.393516 15.4471 0.878906V3.4077H10.3679V0.878906C10.3679 0.393516 9.97441 0 9.48902 0C9.00363 0 8.61012 0.393516 8.61012 0.878906V3.4077H6.88125C4.96594 3.4077 3.4077 4.96594 3.4077 6.88125V8.61012H0.878906C0.393516 8.61012 0 9.00363 0 9.48902C0 9.97441 0.393516 10.3679 0.878906 10.3679H3.4077V15.4471H0.878906C0.393516 15.4471 0 15.8406 0 16.326C0 16.8114 0.393516 17.2049 0.878906 17.2049H3.4077V22.2841H0.878906C0.393516 22.2841 0 22.6777 0 23.163C0 23.6484 0.393516 24.042 0.878906 24.042H3.4077V29.1211H0.878906C0.393516 29.1211 0 29.5146 0 30C0 30.4854 0.393516 30.8789 0.878906 30.8789H3.4077V35.958H0.878906C0.393516 35.958 0 36.3516 0 36.837C0 37.3223 0.393516 37.7159 0.878906 37.7159H3.4077V42.7951H0.878906C0.393516 42.7951 0 43.1886 0 43.674C0 44.1594 0.393516 44.5529 0.878906 44.5529H3.4077V49.6321H0.878906C0.393516 49.6321 0 50.0256 0 50.511C0 50.9964 0.393516 51.3899 0.878906 51.3899H3.4077V53.1187C3.4077 55.0341 4.96594 56.5923 6.88125 56.5923H8.61012V59.1211C8.61012 59.6065 9.00363 60 9.48902 60C9.97441 60 10.3679 59.6065 10.3679 59.1211V56.5923H15.4471V59.1211C15.4471 59.6065 15.8406 60 16.326 60C16.8114 60 17.2049 59.6065 17.2049 59.1211V56.5923H22.2841V59.1211C22.2841 59.6065 22.6777 60 23.163 60C23.6484 60 24.042 59.6065 24.042 59.1211V56.5923H29.1211V59.1211C29.1211 59.6065 29.5146 60 30 60C30.4854 60 30.8789 59.6065 30.8789 59.1211V56.5923H35.958V59.1211C35.958 59.6065 36.3516 60 36.837 60C37.3223 60 37.7159 59.6065 37.7159 59.1211V56.5923H42.7951V59.1211C42.7951 59.6065 43.1886 60 43.674 60C44.1594 60 44.5529 59.6065 44.5529 59.1211V56.5923H49.6321V59.1211C49.6321 59.6065 50.0256 60 50.511 60C50.9964 60 51.3899 59.6065 51.3899 59.1211V56.5923H53.1187C55.0341 56.5923 56.5923 55.0341 56.5923 53.1187V51.3899H59.1211C59.6065 51.3899 60 50.9964 60 50.511C60 50.0256 59.6065 49.6321 59.1211 49.6321H56.5923V44.5529H59.1211C59.6065 44.5529 60 44.1594 60 43.674C60 43.1886 59.6065 42.7951 59.1211 42.7951H56.5923V37.7159H59.1211C59.6065 37.7159 60 37.3223 60 36.837C60 36.3516 59.6065 35.958 59.1211 35.958H56.5923V30.8789H59.1211C59.6065 30.8789 60 30.4854 60 30C60 29.5146 59.6065 29.1211 59.1211 29.1211H56.5923V24.042H59.1211C59.6065 24.042 60 23.6484 60 23.163C60 22.6777 59.6065 22.2841 59.1211 22.2841H56.5923V17.2049H59.1211ZM54.8345 9.48785C54.8345 9.4882 54.8345 9.48855 54.8345 9.48902C54.8345 9.48949 54.8345 9.48973 54.8345 9.4902V16.3249C54.8345 16.3253 54.8345 16.3256 54.8345 16.3261C54.8345 16.3266 54.8345 16.3268 54.8345 16.3273V23.162C54.8345 23.1623 54.8345 23.1627 54.8345 23.1632C54.8345 23.1636 54.8345 23.1639 54.8345 23.1643V29.9991C54.8345 29.9994 54.8345 29.9998 54.8345 30.0002C54.8345 30.0007 54.8345 30.0009 54.8345 30.0014V36.8361C54.8345 36.8365 54.8345 36.8368 54.8345 36.8373C54.8345 36.8378 54.8345 36.838 54.8345 36.8385V43.6732C54.8345 43.6736 54.8345 43.6739 54.8345 43.6744C54.8345 43.6748 54.8345 43.6751 54.8345 43.6755V50.5103C54.8345 50.5106 54.8345 50.511 54.8345 50.5114C54.8345 50.5119 54.8345 50.5121 54.8345 50.5126V53.1192C54.8345 54.0653 54.0648 54.835 53.1187 54.835H6.88125C5.9352 54.835 5.16551 54.0653 5.16551 53.1192V6.88125C5.16551 5.9352 5.9352 5.16551 6.88125 5.16551H53.1187C54.0648 5.16551 54.8345 5.9352 54.8345 6.88125V9.48785Z" fill="white"/>
</svg>
