<svg width="60" height="60" viewBox="0 0 60 60" fill="none" xmlns="http://www.w3.org/2000/svg">
<path d="M55.9268 15.3471H50.4371L49.176 9.64815C48.6374 7.2137 46.5198 5.51343 44.0265 5.51343H24.9683C22.475 5.51343 20.3575 7.21358 19.8187 9.64804L18.5576 15.3471H17.2549V12.9155C17.2549 11.5452 16.14 10.4303 14.7696 10.4303H6.73383C5.36344 10.4303 4.24852 11.5452 4.24852 12.9155V15.3471H4.07309C1.82719 15.3471 0 17.1743 0 19.4203V47.0071C0 49.2531 1.82719 51.0803 4.0732 51.0803H8.23887H22.9634C26.2884 53.2342 30.2491 54.4865 34.4973 54.4865C38.7455 54.4865 42.7063 53.2342 46.0312 51.0803H55.9268C58.1728 51.0803 60 49.2531 60 47.0071V19.4203C60 17.1743 58.1728 15.3471 55.9268 15.3471ZM22.107 10.1544C22.4064 8.80183 23.5829 7.85706 24.9682 7.85706H44.0264C45.4117 7.85706 46.5882 8.80171 46.8875 10.1544L48.0367 15.3471H46.0312C42.7062 13.1932 38.7455 11.9408 34.4973 11.9408C30.2491 11.9408 26.2884 13.1932 22.9634 15.3471H20.9578L22.107 10.1544ZM6.59227 12.9155C6.59227 12.8374 6.65578 12.774 6.73383 12.774H14.7695C14.8475 12.774 14.9111 12.8375 14.9111 12.9155V15.3471H6.59227V12.9155ZM9.41074 48.7364V36.0078C9.41074 35.3606 8.88609 34.836 8.23887 34.836C7.59164 34.836 7.06699 35.3606 7.06699 36.0078V48.7365H4.0732C3.11965 48.7365 2.34375 47.9606 2.34375 47.0071V19.4203C2.34375 18.4666 3.11965 17.6908 4.0732 17.6908H5.42051H16.0829H19.4984H19.968C15.8207 21.5751 13.2244 27.0965 13.2244 33.2136C13.2244 39.3307 15.8207 44.8521 19.968 48.7364H9.41074ZM45.3172 48.7365C43.9204 49.7131 42.3863 50.5059 40.75 51.0803C38.7915 51.7677 36.6875 52.1428 34.4973 52.1428C32.3071 52.1428 30.203 51.7676 28.2446 51.0803C26.6084 50.5059 25.0744 49.7131 23.6774 48.7365C18.7788 45.3117 15.5681 39.631 15.5681 33.2137C15.5681 26.7964 18.7788 21.1158 23.6774 17.691C25.0743 16.7143 26.6084 15.9216 28.2446 15.3472C30.2031 14.6598 32.3071 14.2847 34.4973 14.2847C36.6875 14.2847 38.7916 14.6599 40.75 15.3472C42.3863 15.9216 43.9202 16.7143 45.3172 17.691C50.2158 21.1158 53.4265 26.7964 53.4265 33.2137C53.4265 39.631 50.2158 45.3117 45.3172 48.7365ZM57.6562 47.0069C57.6562 47.9606 56.8805 48.7364 55.9268 48.7364H49.0266C53.1739 44.8521 55.7702 39.3307 55.7702 33.2136C55.7702 27.0965 53.1739 21.5751 49.0266 17.6908H49.4963H55.9268C56.8805 17.6908 57.6562 18.4666 57.6562 19.4203V47.0069Z" fill="white"/>
<path d="M34.4973 17.8282C26.0138 17.8282 19.1119 24.7301 19.1119 33.2137C19.1119 41.6973 26.0138 48.5992 34.4973 48.5992C35.7334 48.5992 36.9637 48.452 38.1541 48.1617C38.783 48.0083 39.1683 47.3743 39.015 46.7456C38.8617 46.1168 38.2276 45.7312 37.5989 45.8848C36.59 46.1308 35.5465 46.2555 34.4973 46.2555C27.3061 46.2555 21.4556 40.4051 21.4556 33.2139C21.4556 26.0226 27.3061 20.1721 34.4973 20.1721C41.6885 20.1721 47.539 26.0225 47.539 33.2139C47.539 35.8349 46.7651 38.362 45.3006 40.5221C44.9374 41.0578 45.0773 41.7866 45.613 42.1498C46.1483 42.5128 46.8773 42.3731 47.2406 41.8373C48.9691 39.2877 49.8827 36.3057 49.8827 33.214C49.8827 24.7301 42.9809 17.8282 34.4973 17.8282Z" fill="white"/>
<path d="M8.23887 21.7415C5.83277 21.7415 3.87539 23.699 3.87539 26.1049C3.87539 28.5109 5.83289 30.4684 8.23887 30.4684C10.6448 30.4684 12.6023 28.5109 12.6023 26.1049C12.6023 23.699 10.6448 21.7415 8.23887 21.7415ZM8.23887 28.1248C7.12523 28.1248 6.21914 27.2187 6.21914 26.105C6.21914 24.9914 7.12523 24.0853 8.23887 24.0853C9.3525 24.0853 10.2586 24.9914 10.2586 26.105C10.2586 27.2187 9.35262 28.1248 8.23887 28.1248Z" fill="white"/>
<path d="M43.956 44.516C43.9406 44.4422 43.9184 44.3684 43.8891 44.2969C43.8598 44.2266 43.8234 44.1586 43.7813 44.0953C43.7392 44.0309 43.6898 43.9711 43.6359 43.9172C43.582 43.8633 43.5212 43.8141 43.4578 43.7707C43.3934 43.7285 43.3254 43.6922 43.2551 43.6629C43.1848 43.6336 43.1111 43.6113 43.0361 43.5961C42.8849 43.5656 42.729 43.5656 42.5779 43.5961C42.5027 43.6113 42.4289 43.6336 42.3587 43.6629C42.2883 43.6922 42.2204 43.7285 42.156 43.7707C42.0927 43.8141 42.0329 43.8633 41.9779 43.9172C41.9239 43.9711 41.8747 44.0309 41.8325 44.0953C41.7904 44.1586 41.754 44.2266 41.7247 44.2969C41.6954 44.3684 41.6732 44.4422 41.6579 44.516C41.6427 44.5922 41.6346 44.6695 41.6346 44.7457C41.6346 44.8219 41.6427 44.8992 41.6579 44.9742C41.6732 45.0492 41.6954 45.123 41.7247 45.1934C41.754 45.2648 41.7904 45.3328 41.8325 45.3961C41.8747 45.4605 41.9239 45.5203 41.9779 45.5742C42.0329 45.6281 42.0926 45.6773 42.156 45.7195C42.2205 45.7617 42.2884 45.798 42.3587 45.8273C42.429 45.8566 42.5027 45.8789 42.5779 45.8941C42.6539 45.9094 42.7302 45.9176 42.8064 45.9176C42.8836 45.9176 42.9599 45.9094 43.0361 45.8941C43.1111 45.8789 43.1849 45.8566 43.2551 45.8273C43.3255 45.798 43.3935 45.7617 43.4578 45.7195C43.5211 45.6773 43.582 45.6281 43.6359 45.5742C43.8539 45.3562 43.9782 45.0539 43.9782 44.7457C43.9782 44.6695 43.9711 44.5922 43.956 44.516Z" fill="white"/>
</svg>
