<svg width="60" height="60" viewBox="0 0 60 60" fill="none" xmlns="http://www.w3.org/2000/svg">
<path d="M45 0H15C13.3432 0 12 1.34309 12 3V57C12 58.6568 13.3431 60 15 60H45C46.6568 60 48 58.6569 48 57V3C48 1.34309 46.6568 0 45 0ZM46 8.00004H23C22.4477 8.00004 22.0001 8.4477 22.0001 9C22.0001 9.55231 22.4477 9.99996 23 9.99996H46.0001V49H43.0001C42.4478 49 42.0001 49.4476 42.0001 49.9999C42.0001 50.5522 42.4478 50.9999 43.0001 50.9999H46.0001V56.9999C46.0001 57.5522 45.5524 57.9998 45.0001 57.9998H15C14.4477 57.9998 14 57.5522 14 56.9999V50.9999H37.0001C37.5524 50.9999 38 50.5522 38 49.9999C38 49.4476 37.5524 49 37.0001 49H14V9.99996H17C17.5523 9.99996 18 9.55231 18 9C18 8.4477 17.5523 8.00004 17 8.00004H14V3C14 2.4477 14.4477 2.00004 15 2.00004H45C45.5523 2.00004 46 2.4477 46 3V8.00004Z" fill="white"/>
<path d="M31 54H28.9999C28.4476 54 28 54.4477 28 55C28 55.5523 28.4476 55.9999 28.9999 55.9999H31C31.5523 55.9999 31.9999 55.5523 31.9999 55C31.9999 54.4477 31.5523 54 31 54Z" fill="white"/>
</svg>
