<svg width="60" height="60" viewBox="0 0 60 60" fill="none" xmlns="http://www.w3.org/2000/svg">
<path d="M3.75 3.75H10.3125V1.875H2.8125C2.56386 1.875 2.3254 1.97377 2.14959 2.14959C1.97377 2.3254 1.875 2.56386 1.875 2.8125V10.3125H3.75V3.75Z" fill="white"/>
<path d="M57.1875 1.875H49.6875V3.75H56.25V10.3125H58.125V2.8125C58.125 2.56386 58.0262 2.3254 57.8504 2.14959C57.6746 1.97377 57.4361 1.875 57.1875 1.875V1.875Z" fill="white"/>
<path d="M3.75 49.6875H1.875V57.1875C1.875 57.4361 1.97377 57.6746 2.14959 57.8504C2.3254 58.0262 2.56386 58.125 2.8125 58.125H10.3125V56.25H3.75V49.6875Z" fill="white"/>
<path d="M56.25 56.25H49.6875V58.125H57.1875C57.4361 58.125 57.6746 58.0262 57.8504 57.8504C58.0262 57.6746 58.125 57.4361 58.125 57.1875V49.6875H56.25V56.25Z" fill="white"/>
<path d="M1.875 29.0625H3.75V30.9375H1.875V29.0625Z" fill="white"/>
<path d="M56.25 29.0625H58.125V30.9375H56.25V29.0625Z" fill="white"/>
<path d="M5.625 6.5625V15.9375C5.625 16.1861 5.72377 16.4246 5.89959 16.6004C6.0754 16.7762 6.31386 16.875 6.5625 16.875H29.0625C29.3111 16.875 29.5496 16.7762 29.7254 16.6004C29.9012 16.4246 30 16.1861 30 15.9375V6.5625C30 6.31386 29.9012 6.0754 29.7254 5.89959C29.5496 5.72377 29.3111 5.625 29.0625 5.625H6.5625C6.31386 5.625 6.0754 5.72377 5.89959 5.89959C5.72377 6.0754 5.625 6.31386 5.625 6.5625ZM7.5 7.5H28.125V15H7.5V7.5Z" fill="white"/>
<path d="M46.875 11.25H48.75V13.125H46.875V11.25Z" fill="white"/>
<path d="M50.625 11.25H54.375V13.125H50.625V11.25Z" fill="white"/>
<path d="M46.875 7.5H54.375V9.375H46.875V7.5Z" fill="white"/>
<path d="M46.875 15H54.375V16.875H46.875V15Z" fill="white"/>
<path d="M38.8256 13.125H45V11.25H38.4375C38.1889 11.2501 37.9504 11.3489 37.7747 11.5247L34.0247 15.2747L35.3503 16.6003L38.8256 13.125Z" fill="white"/>
<path d="M45 39.375V37.5C44.998 36.8171 44.747 36.1584 44.2942 35.6472C43.8413 35.1361 43.2177 34.8075 42.54 34.7231L43.6266 33.6366C44.0633 33.2022 44.4095 32.6856 44.6453 32.1166C44.881 31.5476 45.0016 30.9375 45 30.3216V29.0625C44.9968 26.3284 43.9093 23.7073 41.976 21.774C40.0427 19.8408 37.4216 18.7532 34.6875 18.75H25.3125C22.5785 18.7532 19.9573 19.8408 18.024 21.774C16.0908 23.7073 15.0032 26.3284 15 29.0625V30.3216C14.9984 30.9375 15.119 31.5476 15.3547 32.1166C15.5905 32.6856 15.9367 33.2022 16.3735 33.6366L17.46 34.7231C16.7824 34.8075 16.1587 35.1361 15.7059 35.6472C15.253 36.1584 15.0021 36.8171 15 37.5V39.375C15 39.7443 15.0728 40.1101 15.2141 40.4513C15.3554 40.7925 15.5626 41.1026 15.8238 41.3637C16.0849 41.6249 16.395 41.8321 16.7362 41.9734C17.0774 42.1148 17.4432 42.1875 17.8125 42.1875H18.7978C19.0282 45.0005 20.3083 47.6239 22.3839 49.5364C24.4595 51.449 27.1786 52.5107 30.001 52.5107C32.8233 52.5107 35.5424 51.449 37.618 49.5364C39.6936 47.6239 40.9737 45.0005 41.2041 42.1875H42.1875C42.9334 42.1875 43.6488 41.8912 44.1763 41.3637C44.7037 40.8363 45 40.1209 45 39.375V39.375ZM43.125 37.5V39.375C43.125 39.6236 43.0262 39.8621 42.8504 40.0379C42.6746 40.2137 42.4362 40.3125 42.1875 40.3125H41.25V36.5625H42.1875C42.4362 36.5625 42.6746 36.6613 42.8504 36.8371C43.0262 37.0129 43.125 37.2514 43.125 37.5ZM16.875 29.0625C16.8775 26.8255 17.7672 24.6808 19.349 23.099C20.9308 21.5172 23.0755 20.6275 25.3125 20.625H34.6875C36.9245 20.6275 39.0692 21.5172 40.651 23.099C42.2328 24.6808 43.1225 26.8255 43.125 29.0625V30.3216C43.1261 30.6912 43.0538 31.0573 42.9124 31.3988C42.7709 31.7403 42.5631 32.0503 42.301 32.3109L41.25 33.3619V30.9375C41.25 30.731 41.1818 30.5303 41.056 30.3666C40.9302 30.2028 40.7539 30.0851 40.5544 30.0319L26.4919 26.2819C26.3737 26.2502 26.2504 26.2422 26.1291 26.2583C26.0078 26.2744 25.8909 26.3143 25.785 26.3756L19.2225 30.1256C19.0793 30.2074 18.9602 30.3256 18.8772 30.4681C18.7943 30.6107 18.7504 30.7726 18.75 30.9375V33.3619L17.6991 32.3109C17.4371 32.0502 17.2294 31.7402 17.088 31.3987C16.9465 31.0573 16.8741 30.6912 16.875 30.3216V29.0625ZM16.875 39.375V37.5C16.875 37.2514 16.9738 37.0129 17.1496 36.8371C17.3254 36.6613 17.5639 36.5625 17.8125 36.5625H18.75V40.3125H17.8125C17.5639 40.3125 17.3254 40.2137 17.1496 40.0379C16.9738 39.8621 16.875 39.6236 16.875 39.375ZM39.375 41.25C39.375 43.7364 38.3873 46.121 36.6291 47.8791C34.871 49.6373 32.4864 50.625 30 50.625C27.5136 50.625 25.129 49.6373 23.3709 47.8791C21.6127 46.121 20.625 43.7364 20.625 41.25V31.4813L26.3813 28.1925L39.375 31.6584V41.25Z" fill="white"/>
<path d="M4.6875 27.1875C5.24376 27.1875 5.78753 27.0226 6.25004 26.7135C6.71255 26.4045 7.07304 25.9652 7.28591 25.4513C7.49878 24.9374 7.55448 24.3719 7.44596 23.8263C7.33744 23.2807 7.06957 22.7796 6.67624 22.3863C6.2829 21.9929 5.78176 21.7251 5.23619 21.6165C4.69062 21.508 4.12512 21.5637 3.6112 21.7766C3.09729 21.9895 2.65803 22.3499 2.34899 22.8125C2.03995 23.275 1.875 23.8187 1.875 24.375C1.875 25.1209 2.17132 25.8363 2.69876 26.3637C3.22621 26.8912 3.94158 27.1875 4.6875 27.1875ZM4.6875 23.4375C4.87292 23.4375 5.05418 23.4925 5.20835 23.5955C5.36252 23.6985 5.48268 23.8449 5.55364 24.0162C5.62459 24.1875 5.64316 24.376 5.60699 24.5579C5.57081 24.7398 5.48152 24.9068 5.35041 25.0379C5.2193 25.169 5.05225 25.2583 4.8704 25.2945C4.68854 25.3307 4.50004 25.3121 4.32873 25.2411C4.15743 25.1702 4.01101 25.05 3.908 24.8958C3.80498 24.7417 3.75 24.5604 3.75 24.375C3.75 24.1264 3.84877 23.8879 4.02459 23.7121C4.2004 23.5363 4.43886 23.4375 4.6875 23.4375Z" fill="white"/>
<path d="M55.3125 32.8125C54.7562 32.8125 54.2125 32.9775 53.75 33.2865C53.2874 33.5955 52.927 34.0348 52.7141 34.5487C52.5012 35.0626 52.4455 35.6281 52.554 36.1737C52.6626 36.7193 52.9304 37.2204 53.3238 37.6137C53.7171 38.0071 54.2182 38.2749 54.7638 38.3835C55.3094 38.492 55.8749 38.4363 56.3888 38.2234C56.9027 38.0105 57.342 37.6501 57.651 37.1875C57.9601 36.725 58.125 36.1813 58.125 35.625C58.125 34.8791 57.8287 34.1637 57.3012 33.6363C56.7738 33.1088 56.0584 32.8125 55.3125 32.8125V32.8125ZM55.3125 36.5625C55.1271 36.5625 54.9458 36.5075 54.7917 36.4045C54.6375 36.3015 54.5173 36.1551 54.4464 35.9838C54.3754 35.8125 54.3568 35.624 54.393 35.4421C54.4292 35.2602 54.5185 35.0932 54.6496 34.9621C54.7807 34.831 54.9477 34.7417 55.1296 34.7055C55.3115 34.6693 55.5 34.6879 55.6713 34.7589C55.8426 34.8298 55.989 34.95 56.092 35.1042C56.195 35.2583 56.25 35.4396 56.25 35.625C56.25 35.8736 56.1512 36.1121 55.9754 36.2879C55.7996 36.4637 55.5611 36.5625 55.3125 36.5625Z" fill="white"/>
<path d="M52.5 25.3125H58.125V27.1875H52.5V25.3125Z" fill="white"/>
<path d="M52.5 21.5625H54.375V23.4375H52.5V21.5625Z" fill="white"/>
<path d="M56.25 21.5625H58.125V23.4375H56.25V21.5625Z" fill="white"/>
<path d="M1.875 32.8125H7.5V34.6875H1.875V32.8125Z" fill="white"/>
<path d="M1.875 36.5625H3.75V38.4375H1.875V36.5625Z" fill="white"/>
<path d="M5.625 36.5625H7.5V38.4375H5.625V36.5625Z" fill="white"/>
<path d="M6.46125 43.5938L4.83844 44.5313C7.40428 48.9543 11.0839 52.628 15.5109 55.1869L16.4484 53.5631C12.3058 51.1693 8.86247 47.7321 6.46125 43.5938V43.5938Z" fill="white"/>
<path d="M55.1869 44.4891L53.5631 43.5516C51.1693 47.6942 47.7321 51.1375 43.5938 53.5388L44.5313 55.1616C48.9543 52.5957 52.628 48.9161 55.1869 44.4891Z" fill="white"/>
<path d="M5.89343 52.7697L7.76815 50.895L9.09398 52.2208L7.21926 54.0955L5.89343 52.7697Z" fill="white"/>
<path d="M50.8887 52.2256L52.2146 50.8998L54.0893 52.7745L52.7634 54.1003L50.8887 52.2256Z" fill="white"/>
<path d="M5.625 29.0625H7.5V30.9375H5.625V29.0625Z" fill="white"/>
<path d="M52.5 29.0625H54.375V30.9375H52.5V29.0625Z" fill="white"/>
<path d="M25.3125 8.4375H27.1875V10.3125H25.3125V8.4375Z" fill="white"/>
</svg>
